<svg xmlns="http://www.w3.org/2000/svg" viewBox="0 0 1200 630" width="1200" height="630">
<defs>
  <radialGradient id="bg-grad" cx="50%" cy="50%" r="70%">
    <stop offset="0%" stop-color="#1e2030"/>
    <stop offset="100%" stop-color="#0f1018"/>
  </radialGradient>
  <filter id="glow">
    <feGaussianBlur stdDeviation="8" result="blur"/>
    <feMerge><feMergeNode in="blur"/><feMergeNode in="SourceGraphic"/></feMerge>
  </filter>
  <filter id="soft-glow">
    <feGaussianBlur stdDeviation="3" result="blur"/>
    <feMerge><feMergeNode in="blur"/><feMergeNode in="SourceGraphic"/></feMerge>
  </filter>
</defs>

<!-- Background -->
<rect width="1200" height="630" fill="url(#bg-grad)"/>

<!-- Subtle radial rings -->
<circle cx="600" cy="315" r="275" fill="none" stroke="rgba(255,255,255,0.03)" stroke-width="1"/>
<circle cx="600" cy="315" r="300" fill="none" stroke="rgba(255,255,255,0.02)" stroke-width="1"/>

<path d="M426.7588386092959,141.75883860929585 L428.8978188948017,139.64594780546443 L431.06256653941864,137.5594646768906 L433.252755540114,135.49970344025886 L435.4680560624805,133.46697428803503 L437.7081344904079,131.4615833417525 L439.97265347632475,129.48383260591126 L442.2612719920011,127.53401992249752 L444.5736453799069,125.61243892612941 L446.90942540511537,123.71937899983683 L449.26826030774646,121.85512523148145 L451.6497948559403,120.01995837082353 L454.0536703993538,118.214154787242 L456.47952492317245,116.43798642811427 L458.9269931026279,114.691720777862 L461.39570635801476,112.97562081766884 L463.88529291019756,111.28994498587639 L466.39537783659864,109.63494713906465 L468.9255831276612,108.01087651382173 L471.47552774377516,106.41797768921003 L474.04482767266074,104.85649054993334 L476.6330959871992,103.32665025021123 L479.2399429037029,101.8286871783657 L481.86497584061493,100.36282692212538 L484.50779947763056,98.92929023465302 L487.1680158152312,97.5282930013008 L489.84522423462136,96.16004620709876 L492.53902155806077,94.82475590498129 L495.24900210958094,93.52262318475636 L497.97475777607895,92.25384414282198 L500.7158780687775,91.01860985263497 L503.4719501850432,89.81710633593585 L506.242559070553,88.64951453473475 L557.9048224398401,213.37325142375846 L556.6608755932847,213.89747631409364 L555.4234554594511,214.43692687261162 L554.1927483892599,214.99152186004252 L552.968939722669,215.56117775642122 L551.752213760762,216.14580877366507 L550.5427537379933,216.74532686849332 L549.3407417945936,217.35964175568608 L548.1463589491402,217.98866092168095 L546.9597850712966,218.63228963850526 L545.7811988547238,219.29043097804174 L544.610777790171,219.96298582662547 L543.4486981387456,220.64985289997009 L542.2951349053684,221.35092875842082 L541.1502618124193,222.06610782253222 L540.0142512735749,222.7952823889678 L538.8872743678438,223.53834264672003 L537.7695008138026,224.29517669364725 L536.661098944037,225.0656705533258 L535.5622356797917,225.84970819221456 L534.4730765058323,226.64717153712905 L533.3937854455241,227.45794049302282 L532.324525036131,228.2818929610733 L531.2654563043375,229.1189048570696 L530.216738741999,229.96885013009893 L529.178530282123,230.83160078152952 L528.1509872750845,231.7070268842867 L527.1342644650812,232.59499660241946 L526.128514966828,233.4953762109545 L525.1338902425002,234.40803011603458 L524.1505400789226,235.33282087533865 L523.178612565013,236.26960921877995 L522.2182540694798,237.21825406947977 Z" fill="#E6394688" stroke="rgba(255,255,255,0.15)" stroke-width="0.5"/>
<path d="M506.242559070553,88.64951453473475 L509.0272874817998,87.51601028406219 L511.8257160489279,86.416764285489 L514.6374233388885,85.35194208141914 L517.4619859189061,84.3217040301599 L520.2989784202456,83.32620528177225 L523.1479736022716,82.36559575470602 L526.0085424167892,81.44002011322252 L528.8802540726567,80.5496177456088 L531.762676100662,79.69452274318635 L534.6553744186499,78.87486388011723 L537.5579133968939,78.09076459401123 L540.4698559237004,77.34234296733672 L543.3907634712356,76.62971170963775 L546.320196161567,75.9529781405605 L549.2577128329065,75.31224417369123 L552.2028711060486,74.70760630120856 L555.1552274509904,74.139155579352 L558.1143372537261,73.6069776147094 L561.079754883204,73.1111525513247 L564.0510337584363,72.65175505862865 L567.0277264157542,72.2288543201939 L570.009384576192,71.84251402331606 L572.9955592129986,71.49279234942276 L575.9858006192576,71.17974196531176 L578.9796584756123,70.90341001521938 L581.9766819180815,70.66383811372089 L584.9764196059589,70.46106233946344 L587.9784197897826,70.29511322973275 L590.9822303793671,70.16601577585436 L593.9873990118865,70.07378941942997 L596.9934731199986,70.01844804940959 L600,70 L600,205 L598.6501307885708,205.0082827976941 L597.3004648624797,205.03312994341752 L595.9512054764505,205.07453769528155 L594.6025558239841,205.13249981743104 L593.2547190067571,205.2070075809836 L591.9078980040366,205.29804976534408 L590.5622956421116,205.40561265989442 L589.2181145637484,205.52968006605835 L587.8755571976728,205.67023329974083 L586.5348257280863,205.82725119414192 L585.1961220642162,206.0007101029442 L583.8596478099103,206.19058390387409 L582.5256042332753,206.3968440026356 L581.1941922363669,206.61945933721648 L579.8656123249345,206.8583963825662 L578.540064578226,207.11361915564464 L577.2177486188559,207.38508922084094 L575.8988635827443,207.67276569576185 L574.5836080891262,207.97660525738837 L573.272180210641,208.29656214860017 L571.9647774435034,208.63258818506625 L570.6615966777612,208.98463276250163 L569.3628341676442,209.35264286428776 L568.0686855020092,209.73656306945702 L566.7793455748849,210.13633556103866 L565.495008556122,210.55190013476596 L564.2158678621511,210.98319420814266 L562.9421161268558,211.43015282986772 L561.6739451725622,211.89270868961677 L560.4115459811513,212.37079212817872 L559.1551086652979,212.8643311479463 L557.9048224398401,213.37325142375846 Z" fill="#ea594e88" stroke="rgba(255,255,255,0.15)" stroke-width="0.5"/>
<path d="M600,70 L603.0065268800014,70.01844804940959 L606.0126009881135,70.07378941942997 L609.017769620633,70.16601577585436 L612.0215802102174,70.29511322973275 L615.0235803940411,70.46106233946344 L618.0233180819185,70.66383811372089 L621.0203415243877,70.90341001521938 L624.0141993807424,71.17974196531179 L627.0044407870014,71.49279234942276 L629.990615423808,71.84251402331606 L632.972273584246,72.2288543201939 L635.9489662415637,72.65175505862865 L638.9202451167961,73.1111525513247 L641.8856627462739,73.6069776147094 L644.8447725490096,74.139155579352 L647.7971288939515,74.70760630120856 L650.7422871670935,75.31224417369123 L653.6798038384331,75.9529781405605 L656.6092365287644,76.62971170963777 L659.5301440762996,77.34234296733672 L662.4420866031061,78.09076459401123 L665.3446255813501,78.87486388011723 L668.237323899338,79.69452274318638 L671.1197459273433,80.5496177456088 L673.991457583211,81.44002011322254 L676.8520263977284,82.36559575470602 L679.7010215797544,83.32620528177227 L682.5380140810939,84.3217040301599 L685.3625766611115,85.35194208141917 L688.1742839510721,86.416764285489 L690.9727125182002,87.51601028406219 L693.7574409294471,88.64951453473475 L642.0951775601599,213.37325142375846 L640.8448913347021,212.8643311479463 L639.5884540188487,212.37079212817872 L638.3260548274378,211.89270868961677 L637.0578838731442,211.43015282986772 L635.7841321378489,210.98319420814266 L634.5049914438781,210.55190013476596 L633.2206544251151,210.1363355610387 L631.9313144979909,209.73656306945702 L630.6371658323559,209.35264286428776 L629.3384033222388,208.98463276250163 L628.0352225564966,208.63258818506625 L626.727819789359,208.29656214860017 L625.4163919108738,207.9766052573884 L624.1011364172557,207.67276569576185 L622.7822513811441,207.38508922084094 L621.4599354217742,207.11361915564464 L620.1343876750656,206.8583963825662 L618.8058077636332,206.61945933721648 L617.4743957667248,206.3968440026356 L616.1403521900897,206.19058390387409 L614.8038779357839,206.0007101029442 L613.4651742719138,205.82725119414192 L612.1244428023272,205.67023329974083 L610.7818854362517,205.52968006605835 L609.4377043578884,205.40561265989442 L608.0921019959634,205.29804976534408 L606.745280993243,205.2070075809836 L605.3974441760159,205.13249981743104 L604.0487945235494,205.07453769528155 L602.6995351375203,205.03312994341752 L601.3498692114292,205.0082827976941 L600,205 Z" fill="#ed6e5488" stroke="rgba(255,255,255,0.15)" stroke-width="0.5"/>
<path d="M693.7574409294471,88.64951453473475 L696.5280498149568,89.81710633593585 L699.2841219312226,91.01860985263497 L702.0252422239212,92.253844142822 L704.7509978904192,93.52262318475638 L707.4609784419392,94.82475590498132 L710.1547757653786,96.16004620709876 L712.8319841847688,97.5282930013008 L715.4922005223694,98.92929023465305 L718.1350241593851,100.36282692212538 L720.7600570962971,101.82868717836573 L723.3669040128008,103.32665025021126 L725.9551723273394,104.85649054993334 L728.5244722562248,106.41797768921003 L731.0744168723388,108.01087651382178 L733.6046221634014,109.6349471390647 L736.1147070898026,111.28994498587642 L738.6042936419852,112.97562081766881 L741.0730068973721,114.691720777862 L743.5204750768276,116.43798642811427 L745.9463296006462,118.21415478724202 L748.3502051440598,120.01995837082353 L750.7317396922535,121.85512523148148 L753.0905745948846,123.71937899983686 L755.4263546200932,125.61243892612947 L757.7387280079989,127.53401992249758 L760.0273465236753,129.4838326059113 L762.2918655095921,131.4615833417525 L764.5319439375195,133.46697428803503 L766.747244459886,135.49970344025886 L768.9374334605814,137.5594646768906 L771.1021811051984,139.64594780546443 L773.2411613907042,141.75883860929588 L677.7817459305202,237.21825406947977 L676.8213874349871,236.26960921877995 L675.8494599210774,235.33282087533865 L674.8661097574999,234.40803011603458 L673.871485033172,233.4953762109545 L672.8657355349189,232.59499660241949 L671.8490127249155,231.70702688428668 L670.8214697178771,230.83160078152952 L669.783261258001,229.96885013009893 L668.7345436956625,229.11890485706962 L667.675474963869,228.2818929610733 L666.6062145544759,227.45794049302282 L665.5269234941677,226.64717153712905 L664.4377643202083,225.84970819221456 L663.338901055963,225.0656705533258 L662.2304991861974,224.29517669364722 L661.1127256321563,223.53834264672003 L659.9857487264251,222.79528238896782 L658.8497381875807,222.06610782253222 L657.7048650946316,221.35092875842082 L656.5513018612544,220.64985289997009 L655.389222209829,219.96298582662547 L654.2188011452763,219.29043097804174 L653.0402149287036,218.63228963850526 L651.8536410508598,217.98866092168095 L650.6592582054064,217.35964175568608 L649.4572462620067,216.7453268684933 L648.247786239238,216.14580877366507 L647.031060277331,215.56117775642122 L645.8072516107401,214.99152186004255 L644.5765445405489,214.43692687261162 L643.3391244067153,213.89747631409364 L642.0951775601599,213.37325142375846 Z" fill="#f0835988" stroke="rgba(255,255,255,0.15)" stroke-width="0.5"/>
<path d="M773.2411613907042,141.75883860929588 L775.3540521945356,143.89781889480165 L777.4405353231094,146.06256653941864 L779.5002965597412,148.252755540114 L781.533025711965,150.4680560624805 L783.5384166582476,152.7081344904079 L785.5161673940887,154.9726534763247 L787.4659800775024,157.2612719920011 L789.3875610738705,159.57364537990685 L791.2806210001631,161.90942540511534 L793.1448747685185,164.26826030774643 L794.9800416291764,166.64979485594023 L796.785845212758,169.05367039935382 L798.5620135718857,171.47952492317248 L800.308279222138,173.9269931026279 L802.0243791823311,176.3957063580148 L803.7100550141236,178.88529291019748 L805.3650528609353,181.3953778365986 L806.9891234861782,183.92558312766118 L808.58202231079,186.4755277437751 L810.1435094500666,189.0448276726607 L811.6733497497887,191.6330959871992 L813.1713128216343,194.2399429037029 L814.6371730778746,196.86497584061493 L816.0707097653469,199.50779947763058 L817.4717069986992,202.1680158152312 L818.8399537929013,204.8452242346214 L820.1752440950187,207.5390215580607 L821.4773768152436,210.24900210958089 L822.746155857178,212.9747577760789 L823.981390147365,215.7158780687775 L825.1828936640642,218.47195018504323 L826.3504854652653,221.242559070553 L701.6267485762415,272.90482243984013 L701.1025236859064,271.6608755932847 L700.5630731273884,270.42345545945113 L700.0084781399574,269.1927483892599 L699.4388222435788,267.96893972266895 L698.8541912263349,266.75221376076195 L698.2546731315067,265.5427537379933 L697.6403582443139,264.3407417945936 L697.011339078319,263.1463589491403 L696.3677103614947,261.9597850712965 L695.7095690219583,260.78119885472375 L695.0370141733745,259.6107777901711 L694.35014710003,258.4486981387456 L693.6490712415791,257.2951349053684 L692.9338921774678,256.15026181241933 L692.2047176110322,255.0142512735749 L691.46165735328,253.88727436784376 L690.7048233063528,252.76950081380255 L689.9343294466742,251.661098944037 L689.1502918077854,250.56223567979174 L688.352828462871,249.47307650583232 L687.5420595069772,248.3937854455242 L686.7181070389267,247.32452503613104 L685.8810951429303,246.2654563043375 L685.0311498699011,245.216738741999 L684.1683992184705,244.17853028212295 L683.2929731157133,243.15098727508456 L682.4050033975806,242.13426446508112 L681.5046237890455,241.128514966828 L680.5919698839654,240.13389024250017 L679.6671791246614,239.15054007892263 L678.7303907812201,238.178612565013 L677.7817459305202,237.21825406947977 Z" fill="#F4A26188" stroke="rgba(255,255,255,0.15)" stroke-width="0.5"/>
<path d="M826.3504854652653,221.242559070553 L827.4839897159378,224.02728748179982 L828.583235714511,226.82571604892792 L829.6480579185809,229.63742333888854 L830.6782959698401,232.46198591890607 L831.6737947182278,235.2989784202456 L832.634404245294,238.14797360227158 L833.5599798867775,241.0085424167891 L834.4503822543911,243.88025407265673 L835.3054772568137,246.76267610066202 L836.1251361198828,249.6553744186499 L836.9092354059887,252.55791339689392 L837.6576570326633,255.46985592370035 L838.3702882903623,258.3907634712356 L839.0470218594395,261.3201961615669 L839.6877558263088,264.25771283290646 L840.2923936987914,267.2028711060486 L840.8608444206479,270.1552274509905 L841.3930223852906,273.1143372537262 L841.8888474486753,276.0797548832039 L842.3482449413714,279.05103375843635 L842.7711456798061,282.0277264157541 L843.1574859766839,285.009384576192 L843.5072076505772,287.99555921299867 L843.8202580346882,290.98580061925765 L844.0965899847806,293.9796584756122 L844.3361618862791,296.9766819180815 L844.5389376605366,299.9764196059589 L844.7048867702672,302.9784197897826 L844.8339842241456,305.9822303793671 L844.92621058057,308.9873990118865 L844.9815519505904,311.9934731199986 L845,315 L710,315 L709.9917172023058,313.65013078857083 L709.9668700565825,312.30046486247966 L709.9254623047184,310.9512054764505 L709.867500182569,309.602555823984 L709.7929924190164,308.25471900675706 L709.7019502346559,306.9078980040366 L709.5943873401056,305.5622956421116 L709.4703199339417,304.2181145637483 L709.3297667002591,302.8755571976729 L709.1727488058581,301.5348257280862 L708.9992898970559,300.1961220642161 L708.8094160961259,298.8596478099102 L708.6031559973644,297.52560423327526 L708.3805406627836,296.19419223636686 L708.1416036174338,294.8656123249345 L707.8863808443554,293.5400645782259 L707.614910779159,292.217748618856 L707.3272343042381,290.8988635827443 L707.0233947426116,289.5836080891262 L706.7034378513998,288.27218021064095 L706.3674118149337,286.9647774435034 L706.0153672374984,285.66159667776117 L705.6473571357122,284.36283416764417 L705.263436930543,283.06868550200915 L704.8636644389613,281.7793455748849 L704.448099865234,280.49500855612195 L704.0168057918573,279.2158678621511 L703.5698471701323,277.9421161268558 L703.1072913103833,276.6739451725622 L702.6292078718213,275.41154598115133 L702.1356688520538,274.15510866529786 L701.6267485762415,272.90482243984013 Z" fill="#b7a16f88" stroke="rgba(255,255,255,0.15)" stroke-width="0.5"/>
<path d="M845,315 L844.9815519505904,318.0065268800014 L844.92621058057,321.0126009881135 L844.8339842241456,324.0177696206329 L844.7048867702672,327.0215802102174 L844.5389376605366,330.0235803940411 L844.3361618862791,333.02331808191855 L844.0965899847806,336.0203415243878 L843.8202580346882,339.01419938074235 L843.5072076505772,342.00444078700133 L843.1574859766839,344.990615423808 L842.7711456798061,347.9722735842459 L842.3482449413714,350.94896624156365 L841.8888474486753,353.9202451167961 L841.3930223852906,356.8856627462738 L840.8608444206479,359.8447725490095 L840.2923936987914,362.7971288939514 L839.6877558263088,365.74228716709354 L839.0470218594395,368.6798038384331 L838.3702882903623,371.6092365287644 L837.6576570326633,374.5301440762996 L836.9092354059887,377.4420866031061 L836.1251361198828,380.3446255813501 L835.3054772568137,383.237323899338 L834.4503822543911,386.1197459273433 L833.5599798867775,388.9914575832109 L832.634404245294,391.8520263977284 L831.6737947182278,394.7010215797544 L830.6782959698401,397.53801408109393 L829.6480579185809,400.36257666111146 L828.583235714511,403.1742839510721 L827.4839897159378,405.9727125182002 L826.3504854652653,408.757440929447 L701.6267485762415,357.09517756015987 L702.1356688520538,355.84489133470214 L702.6292078718213,354.58845401884867 L703.1072913103833,353.3260548274378 L703.5698471701323,352.0578838731442 L704.0168057918573,350.7841321378489 L704.448099865234,349.50499144387805 L704.8636644389613,348.2206544251151 L705.263436930543,346.93131449799085 L705.6473571357122,345.63716583235583 L706.0153672374984,344.33840332223883 L706.3674118149337,343.0352225564966 L706.7034378513998,341.72781978935905 L707.0233947426116,340.4163919108738 L707.3272343042381,339.1011364172557 L707.614910779159,337.782251381144 L707.8863808443554,336.4599354217741 L708.1416036174338,335.1343876750655 L708.3805406627836,333.80580776363314 L708.6031559973644,332.47439576672474 L708.8094160961259,331.1403521900898 L708.9992898970559,329.8038779357839 L709.1727488058581,328.4651742719138 L709.3297667002591,327.12444280232717 L709.4703199339417,325.7818854362517 L709.5943873401056,324.4377043578884 L709.7019502346559,323.0921019959634 L709.7929924190164,321.74528099324294 L709.867500182569,320.397444176016 L709.9254623047184,319.0487945235495 L709.9668700565825,317.69953513752034 L709.9917172023058,316.34986921142917 L710,315 Z" fill="#8fa07888" stroke="rgba(255,255,255,0.15)" stroke-width="0.5"/>
<path d="M826.3504854652653,408.757440929447 L825.1828936640642,411.5280498149568 L823.981390147365,414.2841219312225 L822.746155857178,417.0252422239211 L821.4773768152436,419.7509978904191 L820.1752440950187,422.4609784419393 L818.8399537929013,425.1547757653786 L817.4717069986992,427.83198418476877 L816.0707097653469,430.49220052236944 L814.6371730778746,433.13502415938507 L813.1713128216343,435.7600570962971 L811.6733497497887,438.3669040128008 L810.1435094500666,440.9551723273393 L808.58202231079,443.5244722562249 L806.9891234861782,446.0744168723388 L805.3650528609353,448.60462216340136 L803.7100550141236,451.11470708980255 L802.0243791823311,453.60429364198524 L800.308279222138,456.0730068973721 L798.5620135718857,458.52047507682755 L796.785845212758,460.9463296006462 L794.9800416291764,463.35020514405977 L793.1448747685185,465.73173969225354 L791.2806210001631,468.09057459488463 L789.3875610738705,470.42635462009315 L787.4659800775024,472.73872800799893 L785.5161673940887,475.0273465236753 L783.5384166582476,477.29186550959207 L781.533025711965,479.5319439375195 L779.5002965597412,481.747244459886 L777.4405353231094,483.93743346058136 L775.3540521945356,486.1021811051984 L773.2411613907042,488.2411613907041 L677.7817459305202,392.78174593052023 L678.7303907812201,391.821387434987 L679.6671791246614,390.84945992107737 L680.5919698839654,389.8661097574998 L681.5046237890455,388.871485033172 L682.4050033975806,387.8657355349189 L683.2929731157133,386.84901272491544 L684.1683992184705,385.82146971787705 L685.0311498699011,384.783261258001 L685.8810951429303,383.7345436956625 L686.7181070389267,382.67547496386896 L687.5420595069772,381.6062145544758 L688.352828462871,380.5269234941677 L689.1502918077854,379.43776432020826 L689.9343294466742,378.338901055963 L690.7048233063528,377.23049918619745 L691.46165735328,376.11272563215624 L692.2047176110322,374.98574872642513 L692.9338921774678,373.84973818758067 L693.6490712415791,372.7048650946316 L694.35014710003,371.5513018612544 L695.0370141733745,370.3892222098289 L695.7095690219583,369.21880114527625 L696.3677103614947,368.0402149287035 L697.011339078319,366.8536410508597 L697.6403582443139,365.6592582054064 L698.2546731315067,364.4572462620067 L698.8541912263349,363.24778623923805 L699.4388222435788,362.03106027733105 L700.0084781399574,360.8072516107401 L700.5630731273884,359.57654454054887 L701.1025236859064,358.3391244067153 L701.6267485762415,357.09517756015987 Z" fill="#679f8188" stroke="rgba(255,255,255,0.15)" stroke-width="0.5"/>
<path d="M773.2411613907042,488.2411613907041 L771.1021811051984,490.3540521945356 L768.9374334605814,492.44053532310943 L766.747244459886,494.5002965597412 L764.5319439375195,496.53302571196497 L762.2918655095921,498.5384166582475 L760.0273465236753,500.5161673940887 L757.7387280079989,502.4659800775024 L755.4263546200932,504.38756107387053 L753.0905745948846,506.28062100016314 L750.7317396922535,508.14487476851855 L748.3502051440598,509.98004162917647 L745.9463296006462,511.785845212758 L743.5204750768276,513.5620135718857 L741.0730068973721,515.308279222138 L738.6042936419852,517.0243791823311 L736.1147070898026,518.7100550141236 L733.6046221634014,520.3650528609353 L731.0744168723388,521.9891234861782 L728.5244722562248,523.58202231079 L725.9551723273394,525.1435094500666 L723.3669040128008,526.6733497497887 L720.7600570962971,528.1713128216343 L718.1350241593851,529.6371730778746 L715.4922005223694,531.0707097653469 L712.8319841847688,532.4717069986992 L710.1547757653786,533.8399537929013 L707.4609784419392,535.1752440950187 L704.7509978904192,536.4773768152436 L702.025242223921,537.746155857178 L699.2841219312226,538.981390147365 L696.5280498149568,540.1828936640642 L693.7574409294471,541.3504854652653 L642.0951775601599,416.62674857624154 L643.3391244067153,416.10252368590636 L644.5765445405489,415.5630731273884 L645.8072516107401,415.00847813995745 L647.031060277331,414.4388222435788 L648.247786239238,413.85419122633493 L649.4572462620067,413.2546731315067 L650.6592582054064,412.6403582443139 L651.8536410508598,412.01133907831905 L653.0402149287036,411.36771036149474 L654.2188011452763,410.70956902195826 L655.389222209829,410.03701417337453 L656.5513018612544,409.3501471000299 L657.7048650946316,408.6490712415792 L658.8497381875807,407.9338921774678 L659.9857487264251,407.20471761103215 L661.1127256321563,406.46165735328 L662.2304991861974,405.70482330635275 L663.338901055963,404.9343294466742 L664.4377643202083,404.15029180778544 L665.5269234941677,403.35282846287095 L666.6062145544759,402.5420595069772 L667.675474963869,401.7181070389267 L668.7345436956625,400.8810951429304 L669.783261258001,400.03114986990107 L670.8214697178771,399.1683992184705 L671.8490127249155,398.2929731157133 L672.8657355349189,397.4050033975805 L673.871485033172,396.50462378904547 L674.8661097574999,395.5919698839654 L675.8494599210774,394.66717912466135 L676.8213874349871,393.7303907812201 L677.7817459305202,392.78174593052023 Z" fill="#2A9D8F88" stroke="rgba(255,255,255,0.15)" stroke-width="0.5"/>
<path d="M693.7574409294471,541.3504854652653 L690.9727125182002,542.4839897159378 L688.1742839510721,543.583235714511 L685.3625766611115,544.6480579185809 L682.5380140810939,545.6782959698401 L679.7010215797544,546.6737947182278 L676.8520263977284,547.634404245294 L673.991457583211,548.5599798867775 L671.1197459273433,549.4503822543912 L668.237323899338,550.3054772568137 L665.3446255813501,551.1251361198828 L662.4420866031061,551.9092354059887 L659.5301440762996,552.6576570326633 L656.6092365287644,553.3702882903622 L653.6798038384331,554.0470218594395 L650.7422871670935,554.6877558263088 L647.7971288939515,555.2923936987914 L644.8447725490096,555.8608444206479 L641.8856627462739,556.3930223852906 L638.9202451167961,556.8888474486753 L635.9489662415637,557.3482449413714 L632.972273584246,557.7711456798061 L629.990615423808,558.1574859766839 L627.0044407870014,558.5072076505772 L624.0141993807424,558.8202580346882 L621.0203415243877,559.0965899847806 L618.0233180819185,559.3361618862791 L615.0235803940411,559.5389376605366 L612.0215802102174,559.7048867702672 L609.0177696206329,559.8339842241456 L606.0126009881135,559.92621058057 L603.0065268800014,559.9815519505904 L600,560 L600,425 L601.3498692114292,424.9917172023059 L602.6995351375203,424.9668700565825 L604.0487945235495,424.92546230471845 L605.3974441760159,424.86750018256896 L606.745280993243,424.7929924190164 L608.0921019959634,424.7019502346559 L609.4377043578884,424.5943873401056 L610.7818854362517,424.47031993394165 L612.1244428023272,424.32976670025914 L613.4651742719138,424.1727488058581 L614.8038779357839,423.9992898970558 L616.1403521900897,423.8094160961259 L617.4743957667248,423.6031559973644 L618.8058077636332,423.3805406627835 L620.1343876750656,423.1416036174338 L621.4599354217742,422.88638084435536 L622.7822513811441,422.61491077915906 L624.1011364172557,422.3272343042381 L625.4163919108738,422.0233947426116 L626.727819789359,421.7034378513998 L628.0352225564966,421.36741181493375 L629.3384033222388,421.01536723749837 L630.6371658323559,420.64735713571224 L631.9313144979909,420.263436930543 L633.2206544251151,419.86366443896134 L634.5049914438781,419.44809986523404 L635.7841321378489,419.01680579185734 L637.0578838731442,418.5698471701323 L638.3260548274378,418.10729131038323 L639.5884540188487,417.6292078718213 L640.8448913347021,417.1356688520537 L642.0951775601599,416.62674857624154 Z" fill="#32939388" stroke="rgba(255,255,255,0.15)" stroke-width="0.5"/>
<path d="M600,560 L596.9934731199986,559.9815519505904 L593.9873990118865,559.92621058057 L590.982230379367,559.8339842241456 L587.9784197897826,559.7048867702672 L584.9764196059589,559.5389376605366 L581.9766819180815,559.3361618862791 L578.9796584756123,559.0965899847806 L575.9858006192576,558.8202580346882 L572.9955592129986,558.5072076505772 L570.009384576192,558.1574859766839 L567.0277264157542,557.7711456798061 L564.0510337584363,557.3482449413714 L561.079754883204,556.8888474486753 L558.1143372537261,556.3930223852906 L555.1552274509904,555.8608444206479 L552.2028711060486,555.2923936987914 L549.2577128329065,554.6877558263088 L546.320196161567,554.0470218594395 L543.3907634712356,553.3702882903623 L540.4698559237004,552.6576570326633 L537.5579133968939,551.9092354059887 L534.6553744186499,551.1251361198828 L531.762676100662,550.3054772568137 L528.8802540726567,549.4503822543912 L526.0085424167892,548.5599798867775 L523.1479736022716,547.634404245294 L520.2989784202456,546.6737947182278 L517.4619859189061,545.6782959698401 L514.6374233388885,544.6480579185809 L511.8257160489279,543.583235714511 L509.0272874817998,542.4839897159378 L506.242559070553,541.3504854652653 L557.9048224398401,416.62674857624154 L559.1551086652979,417.1356688520537 L560.4115459811513,417.6292078718213 L561.6739451725622,418.10729131038323 L562.9421161268558,418.5698471701323 L564.2158678621511,419.01680579185734 L565.495008556122,419.44809986523404 L566.7793455748849,419.86366443896134 L568.0686855020092,420.263436930543 L569.3628341676442,420.64735713571224 L570.6615966777612,421.01536723749837 L571.9647774435034,421.36741181493375 L573.272180210641,421.7034378513998 L574.5836080891262,422.02339474261163 L575.8988635827443,422.3272343042381 L577.2177486188559,422.61491077915906 L578.540064578226,422.88638084435536 L579.8656123249345,423.1416036174338 L581.1941922363669,423.3805406627835 L582.5256042332753,423.6031559973644 L583.8596478099103,423.8094160961259 L585.1961220642162,423.9992898970558 L586.5348257280863,424.1727488058581 L587.8755571976728,424.32976670025914 L589.2181145637484,424.47031993394165 L590.5622956421116,424.5943873401056 L591.9078980040366,424.7019502346559 L593.2547190067571,424.7929924190164 L594.6025558239841,424.86750018256896 L595.9512054764506,424.92546230471845 L597.3004648624797,424.9668700565825 L598.6501307885708,424.9917172023059 L600,425 Z" fill="#388c9688" stroke="rgba(255,255,255,0.15)" stroke-width="0.5"/>
<path d="M506.2425590705531,541.3504854652654 L503.47195018504334,540.1828936640642 L500.7158780687776,538.9813901473651 L497.97475777607906,537.746155857178 L495.24900210958106,536.4773768152437 L492.5390215580609,535.1752440950188 L489.84522423462147,533.8399537929013 L487.1680158152313,532.4717069986992 L484.50779947763067,531.070709765347 L481.86497584061505,529.6371730778746 L479.239942903703,528.1713128216344 L476.6330959871993,526.6733497497888 L474.0448276726608,525.1435094500667 L471.4755277437753,523.5820223107901 L468.9255831276613,521.9891234861783 L466.39537783659875,520.3650528609354 L463.88529291019756,518.7100550141236 L461.3957063580149,517.0243791823312 L458.926993102628,515.308279222138 L456.47952492317256,513.5620135718858 L454.0536703993539,511.7858452127581 L451.64979485594034,509.9800416291765 L449.2682603077466,508.1448747685186 L446.9094254051155,506.28062100016325 L444.57364537990696,504.38756107387064 L442.2612719920012,502.46598007750254 L439.9726534763248,500.5161673940888 L437.70813449040793,498.53841665824757 L435.46805606248057,496.533025711965 L433.2527555401141,494.50029655974123 L431.06256653941864,492.44053532310943 L428.89781889480173,490.35405219453565 L426.75883860929594,488.24116139070424 L522.2182540694798,392.7817459305203 L523.178612565013,393.7303907812201 L524.1505400789226,394.6671791246614 L525.1338902425002,395.5919698839655 L526.128514966828,396.5046237890455 L527.1342644650812,397.4050033975806 L528.1509872750846,398.2929731157134 L529.178530282123,399.16839921847054 L530.216738741999,400.0311498699011 L531.2654563043376,400.88109514293046 L532.324525036131,401.71810703892675 L533.3937854455243,402.54205950697724 L534.4730765058324,403.352828462871 L535.5622356797918,404.15029180778544 L536.661098944037,404.9343294466742 L537.7695008138026,405.7048233063528 L538.8872743678438,406.46165735328 L540.0142512735749,407.2047176110322 L541.1502618124193,407.93389217746784 L542.2951349053685,408.6490712415792 L543.4486981387456,409.35014710003 L544.6107777901711,410.0370141733746 L545.7811988547238,410.70956902195826 L546.9597850712966,411.36771036149474 L548.1463589491403,412.0113390783191 L549.3407417945937,412.640358244314 L550.5427537379934,413.2546731315067 L551.752213760762,413.85419122633493 L552.968939722669,414.4388222435788 L554.19274838926,415.0084781399575 L555.4234554594511,415.5630731273884 L556.6608755932848,416.10252368590636 L557.9048224398401,416.62674857624154 Z" fill="#3d859988" stroke="rgba(255,255,255,0.15)" stroke-width="0.5"/>
<path d="M426.7588386092959,488.2411613907042 L424.6459478054644,486.1021811051984 L422.5594646768906,483.9374334605814 L420.4997034402589,481.747244459886 L418.4669742880351,479.53194393751954 L416.46158334175254,477.2918655095921 L414.4838326059113,475.0273465236753 L412.5340199224976,472.73872800799893 L410.61243892612947,470.42635462009315 L408.71937899983686,468.09057459488463 L406.85512523148145,465.7317396922536 L405.0199583708236,463.35020514405977 L403.214154787242,460.9463296006462 L401.4379864281143,458.52047507682755 L399.69172077786203,456.0730068973721 L397.97562081766887,453.6042936419853 L396.2899449858764,451.11470708980255 L394.6349471390647,448.60462216340136 L393.01087651382176,446.0744168723388 L391.41797768921003,443.5244722562249 L389.85649054993337,440.95517232733937 L388.3266502502113,438.36690401280083 L386.8286871783657,435.76005709629715 L385.3628269221254,433.1350241593851 L383.9292902346531,430.49220052236944 L382.5282930013008,427.8319841847689 L381.16004620709873,425.1547757653787 L379.8247559049813,422.46097844193923 L378.5226231847564,419.7509978904191 L377.253844142822,417.0252422239211 L376.018609852635,414.28412193122256 L374.8171063359358,411.52804981495683 L373.64951453473475,408.75744092944706 L498.37325142375846,357.09517756015987 L498.89747631409364,358.3391244067153 L499.4369268726116,359.57654454054887 L499.99152186004255,360.8072516107401 L500.5611777564212,362.031060277331 L501.14580877366507,363.24778623923805 L501.7453268684933,364.4572462620068 L502.3596417556861,365.65925820540645 L502.98866092168095,366.8536410508598 L503.6322896385053,368.0402149287035 L504.29043097804174,369.21880114527625 L504.96298582662547,370.389222209829 L505.6498528999701,371.5513018612544 L506.3509287584208,372.7048650946316 L507.0661078225322,373.84973818758067 L507.7952823889678,374.9857487264251 L508.53834264672,376.11272563215624 L509.29517669364725,377.23049918619745 L510.0656705533258,378.338901055963 L510.8497081922146,379.4377643202083 L511.64717153712905,380.5269234941677 L512.4579404930228,381.6062145544758 L513.2818929610733,382.67547496386896 L514.1189048570697,383.7345436956625 L514.9688501300989,384.783261258001 L515.8316007815295,385.82146971787705 L516.7070268842867,386.8490127249155 L517.5949966024194,387.8657355349189 L518.4953762109545,388.871485033172 L519.4080301160346,389.8661097574999 L520.3328208753387,390.84945992107737 L521.2696092187799,391.821387434987 L522.2182540694798,392.78174593052023 Z" fill="#457B9D88" stroke="rgba(255,255,255,0.15)" stroke-width="0.5"/>
<path d="M373.64951453473475,408.75744092944694 L372.5160102840622,405.9727125182001 L371.41676428548897,403.174283951072 L370.3519420814191,400.3625766611114 L369.32170403015994,397.5380140810939 L368.3262052817722,394.7010215797544 L367.36559575470596,391.8520263977283 L366.4400201132225,388.9914575832108 L365.54961774560877,386.11974592734316 L364.6945227431863,383.2373238993379 L363.87486388011723,380.34462558135 L363.0907645940112,377.44208660310596 L362.34234296733666,374.53014407629956 L361.6297117096377,371.60923652876437 L360.9529781405605,368.67980383843303 L360.3122441736912,365.74228716709354 L359.70760630120856,362.7971288939513 L359.13915557935195,359.8447725490094 L358.60697761470936,356.8856627462737 L358.1111525513247,353.92024511679597 L357.6517550586286,350.94896624156354 L357.2288543201939,347.97227358424584 L356.842514023316,344.99061542380787 L356.49279234942276,342.0044407870013 L356.1797419653118,339.0141993807423 L355.9034100152194,336.02034152438773 L355.6638381137209,333.0233180819185 L355.4610623394634,330.02358039404095 L355.29511322973275,327.0215802102173 L355.16601577585436,324.0177696206328 L355.07378941943,321.01260098811343 L355.0184480494096,318.0065268800013 L355,314.99999999999994 L490,314.99999999999994 L490.0082827976941,316.34986921142917 L490.0331299434175,317.6995351375203 L490.07453769528155,319.0487945235494 L490.13249981743104,320.39744417601594 L490.2070075809836,321.7452809932429 L490.2980497653441,323.0921019959634 L490.4056126598944,324.4377043578884 L490.52968006605835,325.7818854362516 L490.67023329974086,327.1244428023271 L490.8272511941419,328.4651742719137 L491.0007101029442,329.8038779357838 L491.1905839038741,331.14035219008974 L491.3968440026356,332.4743957667247 L491.6194593372164,333.8058077636331 L491.8583963825662,335.13438767506545 L492.11361915564464,336.45993542177405 L492.38508922084094,337.782251381144 L492.6727656957619,339.10113641725565 L492.97660525738837,340.4163919108738 L493.2965621486002,341.727819789359 L493.63258818506625,343.0352225564966 L493.98463276250163,344.3384033222388 L494.35264286428776,345.6371658323558 L494.736563069457,346.9313144979908 L495.13633556103866,348.220654425115 L495.55190013476596,349.50499144387805 L495.98319420814266,350.78413213784887 L496.4301528298677,352.0578838731442 L496.89270868961677,353.32605482743776 L497.3707921281787,354.58845401884867 L497.86433114794625,355.8448913347021 L498.37325142375846,357.09517756015987 Z" fill="#75678388" stroke="rgba(255,255,255,0.15)" stroke-width="0.5"/>
<path d="M355,315.00000000000006 L355.0184480494096,311.99347311999867 L355.07378941943,308.98739901188657 L355.16601577585436,305.98223037936714 L355.29511322973275,302.97841978978266 L355.4610623394634,299.976419605959 L355.6638381137209,296.97668191808145 L355.9034100152194,293.9796584756122 L356.1797419653118,290.98580061925765 L356.49279234942276,287.99555921299867 L356.8425140233161,285.0093845761921 L357.22885432019393,282.0277264157541 L357.6517550586286,279.0510337584364 L358.1111525513247,276.07975488320403 L358.60697761470936,273.11433725372626 L359.13915557935195,270.15522745099054 L359.70760630120856,267.2028711060486 L360.3122441736912,264.25771283290646 L360.9529781405605,261.3201961615669 L361.6297117096377,258.3907634712356 L362.3423429673367,255.46985592370038 L363.0907645940112,252.55791339689395 L363.87486388011723,249.65537441864993 L364.6945227431863,246.76267610066202 L365.54961774560877,243.88025407265678 L366.4400201132225,241.00854241678917 L367.36559575470596,238.14797360227166 L368.3262052817723,235.2989784202456 L369.32170403015994,232.46198591890607 L370.3519420814191,229.63742333888854 L371.41676428548897,226.82571604892792 L372.5160102840622,224.02728748179982 L373.64951453473475,221.24255907055303 L498.37325142375846,272.90482243984013 L497.8643311479463,274.15510866529786 L497.3707921281787,275.41154598115133 L496.89270868961677,276.6739451725622 L496.4301528298677,277.9421161268558 L495.98319420814266,279.2158678621511 L495.55190013476596,280.49500855612195 L495.13633556103866,281.7793455748849 L494.736563069457,283.06868550200915 L494.35264286428776,284.36283416764417 L493.98463276250163,285.66159667776117 L493.63258818506625,286.9647774435034 L493.2965621486002,288.27218021064095 L492.97660525738837,289.5836080891262 L492.6727656957619,290.8988635827443 L492.38508922084094,292.217748618856 L492.11361915564464,293.5400645782259 L491.8583963825662,294.86561232493455 L491.6194593372164,296.1941922363669 L491.3968440026356,297.52560423327526 L491.1905839038741,298.8596478099102 L491.0007101029442,300.1961220642161 L490.8272511941419,301.5348257280862 L490.67023329974086,302.8755571976729 L490.52968006605835,304.2181145637483 L490.4056126598944,305.5622956421116 L490.2980497653441,306.9078980040366 L490.2070075809836,308.25471900675706 L490.13249981743104,309.60255582398406 L490.07453769528155,310.9512054764506 L490.0331299434175,312.30046486247966 L490.0082827976941,313.65013078857083 L490,315 Z" fill="#965a7288" stroke="rgba(255,255,255,0.15)" stroke-width="0.5"/>
<path d="M373.6495145347347,221.24255907055314 L374.8171063359358,218.47195018504334 L376.01860985263494,215.7158780687776 L377.25384414282195,212.97475777607906 L378.5226231847563,210.24900210958106 L379.8247559049812,207.53902155806088 L381.16004620709873,204.84522423462147 L382.52829300130077,202.16801581523129 L383.92929023465297,199.50779947763067 L385.36282692212535,196.86497584061505 L386.8286871783656,194.23994290370302 L388.3266502502112,191.63309598719934 L389.85649054993326,189.0448276726608 L391.4179776892099,186.47552774377527 L393.0108765138217,183.92558312766133 L394.6349471390646,181.39537783659878 L396.28994498587633,178.88529291019753 L397.97562081766876,176.39570635801485 L399.691720777862,173.926993102628 L401.4379864281142,171.4795249231726 L403.2141547872419,169.05367039935393 L405.0199583708235,166.64979485594034 L406.85512523148134,164.26826030774654 L408.71937899983675,161.90942540511546 L410.61243892612936,159.573645379907 L412.53401992249746,157.2612719920012 L414.4838326059112,154.97265347632484 L416.46158334175243,152.70813449040799 L418.466974288035,150.46805606248057 L420.49970344025877,148.2527555401141 L422.5594646768905,146.06256653941867 L424.64594780546435,143.89781889480173 L426.75883860929576,141.75883860929596 L522.2182540694797,237.21825406947983 L521.2696092187799,238.17861256501303 L520.3328208753386,239.1505400789227 L519.4080301160345,240.1338902425002 L518.4953762109544,241.128514966828 L517.5949966024194,242.13426446508115 L516.7070268842866,243.15098727508462 L515.8316007815295,244.178530282123 L514.9688501300989,245.21673874199905 L514.1189048570695,246.26545630433753 L513.2818929610733,247.3245250361311 L512.4579404930228,248.39378544552426 L511.647171537129,249.47307650583238 L510.8497081922145,250.56223567979177 L510.0656705533258,251.66109894403706 L509.2951766936472,252.76950081380258 L508.53834264672,253.8872743678438 L507.7952823889678,255.01425127357496 L507.06610782253216,256.1502618124194 L506.35092875842076,257.2951349053685 L505.64985289997,258.44869813874567 L504.9629858266254,259.61077779017114 L504.29043097804174,260.7811988547238 L503.63228963850526,261.95978507129655 L502.9886609216809,263.1463589491403 L502.359641755686,264.34074179459367 L501.7453268684933,265.54275373799334 L501.14580877366507,266.752213760762 L500.5611777564212,267.96893972266906 L499.9915218600425,269.19274838926 L499.4369268726116,270.4234554594512 L498.89747631409364,271.6608755932848 L498.37325142375846,272.9048224398402 Z" fill="#b64d6088" stroke="rgba(255,255,255,0.15)" stroke-width="0.5"/>
<text x="495.8" y="159.1" text-anchor="middle" dominant-baseline="central" transform="rotate(-33.7,495.8,159.1)" font-family="Inter,system-ui,sans-serif" font-weight="700" font-size="13" fill="rgba(255,255,255,0.85)">D</text>
<text x="563.4" y="131.1" text-anchor="middle" dominant-baseline="central" transform="rotate(-11.2,563.4,131.1)" font-family="Inter,system-ui,sans-serif" font-weight="700" font-size="13" fill="rgba(255,255,255,0.85)">Di</text>
<text x="636.6" y="131.1" text-anchor="middle" dominant-baseline="central" transform="rotate(11.3,636.6,131.1)" font-family="Inter,system-ui,sans-serif" font-weight="700" font-size="13" fill="rgba(255,255,255,0.85)">DI</text>
<text x="704.2" y="159.1" text-anchor="middle" dominant-baseline="central" transform="rotate(33.8,704.2,159.1)" font-family="Inter,system-ui,sans-serif" font-weight="700" font-size="13" fill="rgba(255,255,255,0.85)">Id</text>
<text x="755.9" y="210.8" text-anchor="middle" dominant-baseline="central" transform="rotate(56.3,755.9,210.8)" font-family="Inter,system-ui,sans-serif" font-weight="700" font-size="13" fill="rgba(255,255,255,0.85)">I</text>
<text x="783.9" y="278.4" text-anchor="middle" dominant-baseline="central" transform="rotate(78.7,783.9,278.4)" font-family="Inter,system-ui,sans-serif" font-weight="700" font-size="13" fill="rgba(255,255,255,0.85)">Is</text>
<text x="783.9" y="351.6" text-anchor="middle" dominant-baseline="central" transform="rotate(101.3,783.9,351.6)" font-family="Inter,system-ui,sans-serif" font-weight="700" font-size="13" fill="rgba(255,255,255,0.85)">IS</text>
<text x="755.9" y="419.2" text-anchor="middle" dominant-baseline="central" transform="rotate(123.7,755.9,419.2)" font-family="Inter,system-ui,sans-serif" font-weight="700" font-size="13" fill="rgba(255,255,255,0.85)">Si</text>
<text x="704.2" y="470.9" text-anchor="middle" dominant-baseline="central" transform="rotate(146.3,704.2,470.9)" font-family="Inter,system-ui,sans-serif" font-weight="700" font-size="13" fill="rgba(255,255,255,0.85)">S</text>
<text x="636.6" y="498.9" text-anchor="middle" dominant-baseline="central" transform="rotate(168.8,636.6,498.9)" font-family="Inter,system-ui,sans-serif" font-weight="700" font-size="13" fill="rgba(255,255,255,0.85)">Sc</text>
<text x="563.4" y="498.9" text-anchor="middle" dominant-baseline="central" transform="rotate(191.3,563.4,498.9)" font-family="Inter,system-ui,sans-serif" font-weight="700" font-size="13" fill="rgba(255,255,255,0.85)">SC</text>
<text x="495.8" y="470.9" text-anchor="middle" dominant-baseline="central" transform="rotate(213.8,495.8,470.9)" font-family="Inter,system-ui,sans-serif" font-weight="700" font-size="13" fill="rgba(255,255,255,0.85)">Cs</text>
<text x="444.1" y="419.2" text-anchor="middle" dominant-baseline="central" transform="rotate(236.3,444.1,419.2)" font-family="Inter,system-ui,sans-serif" font-weight="700" font-size="13" fill="rgba(255,255,255,0.85)">C</text>
<text x="416.1" y="351.6" text-anchor="middle" dominant-baseline="central" transform="rotate(258.8,416.1,351.6)" font-family="Inter,system-ui,sans-serif" font-weight="700" font-size="13" fill="rgba(255,255,255,0.85)">Cd</text>
<text x="416.1" y="278.4" text-anchor="middle" dominant-baseline="central" transform="rotate(281.3,416.1,278.4)" font-family="Inter,system-ui,sans-serif" font-weight="700" font-size="13" fill="rgba(255,255,255,0.85)">CD</text>
<text x="444.1" y="210.8" text-anchor="middle" dominant-baseline="central" transform="rotate(303.8,444.1,210.8)" font-family="Inter,system-ui,sans-serif" font-weight="700" font-size="13" fill="rgba(255,255,255,0.85)">Dc</text>
<text x="451.7" y="378.0" text-anchor="end" dominant-baseline="central" transform="rotate(56.3,451.7,378.0)" font-family="Inter,system-ui,sans-serif" font-weight="400" font-size="10" fill="#E63946cc">Director</text>
<text x="547.9" y="338.1" text-anchor="end" dominant-baseline="central" transform="rotate(78.8,547.9,338.1)" font-family="Inter,system-ui,sans-serif" font-weight="400" font-size="10" fill="#ea594ecc">Initiator</text>
<text x="652.1" y="338.1" text-anchor="start" dominant-baseline="central" transform="rotate(-78.8,652.1,338.1)" font-family="Inter,system-ui,sans-serif" font-weight="400" font-size="10" fill="#ed6e54cc">Trailblazer</text>
<text x="748.3" y="378.0" text-anchor="start" dominant-baseline="central" transform="rotate(-56.3,748.3,378.0)" font-family="Inter,system-ui,sans-serif" font-weight="400" font-size="10" fill="#f08359cc">Encourager</text>
<text x="822.0" y="451.7" text-anchor="start" dominant-baseline="central" transform="rotate(-33.8,822.0,451.7)" font-family="Inter,system-ui,sans-serif" font-weight="400" font-size="10" fill="#F4A261cc">Communicator</text>
<text x="861.9" y="547.9" text-anchor="start" dominant-baseline="central" transform="rotate(-11.3,861.9,547.9)" font-family="Inter,system-ui,sans-serif" font-weight="400" font-size="10" fill="#b7a16fcc">Harmonizer</text>
<text x="861.9" y="652.1" text-anchor="start" dominant-baseline="central" transform="rotate(11.3,861.9,652.1)" font-family="Inter,system-ui,sans-serif" font-weight="400" font-size="10" fill="#8fa078cc">Counselor</text>
<text x="822.0" y="748.3" text-anchor="start" dominant-baseline="central" transform="rotate(33.7,822.0,748.3)" font-family="Inter,system-ui,sans-serif" font-weight="400" font-size="10" fill="#679f81cc">Supporter</text>
<text x="748.3" y="822.0" text-anchor="start" dominant-baseline="central" transform="rotate(56.3,748.3,822.0)" font-family="Inter,system-ui,sans-serif" font-weight="400" font-size="10" fill="#2A9D8Fcc">Stabilizer</text>
<text x="652.1" y="861.9" text-anchor="start" dominant-baseline="central" transform="rotate(78.7,652.1,861.9)" font-family="Inter,system-ui,sans-serif" font-weight="400" font-size="10" fill="#329393cc">Specialist</text>
<text x="547.9" y="861.9" text-anchor="end" dominant-baseline="central" transform="rotate(281.3,547.9,861.9)" font-family="Inter,system-ui,sans-serif" font-weight="400" font-size="10" fill="#388c96cc">Coordinator</text>
<text x="451.7" y="822.0" text-anchor="end" dominant-baseline="central" transform="rotate(303.8,451.7,822.0)" font-family="Inter,system-ui,sans-serif" font-weight="400" font-size="10" fill="#3d8599cc">Analyst</text>
<text x="378.0" y="748.3" text-anchor="end" dominant-baseline="central" transform="rotate(326.3,378.0,748.3)" font-family="Inter,system-ui,sans-serif" font-weight="400" font-size="10" fill="#457B9Dcc">Thinker</text>
<text x="338.1" y="652.1" text-anchor="end" dominant-baseline="central" transform="rotate(348.8,338.1,652.1)" font-family="Inter,system-ui,sans-serif" font-weight="400" font-size="10" fill="#756783cc">Strategist</text>
<text x="338.1" y="547.9" text-anchor="end" dominant-baseline="central" transform="rotate(371.3,338.1,547.9)" font-family="Inter,system-ui,sans-serif" font-weight="400" font-size="10" fill="#965a72cc">Architect</text>
<text x="378.0" y="451.7" text-anchor="end" dominant-baseline="central" transform="rotate(393.8,378.0,451.7)" font-family="Inter,system-ui,sans-serif" font-weight="400" font-size="10" fill="#b64d60cc">Commander</text>
<path d="M600,315 L495.05597499685433,294.12533554427426 L496.2066559081838,289.00112075035076 L497.60738407665366,283.93953953377246 L499.25478502541677,278.9527856870324 L501.1448900212923,274.05287273693534 L503.2731456357916,269.25160500295976 L505.63442471472604,264.56054915961823 L508.22303872997094,259.9910063713252 L511.0327514836277,255.55398506690253 L514.056794131571,251.26017441930964 L517.2878814901871,247.1199185944899 L520.7182295870194,243.143191831369 L524.3395744130394,239.33957441303943 L528.1431918313691,235.71822958701935 L532.11991859449,232.28788149018715 L536.2601744193097,229.05679413157097 L540.5539850669026,226.03275148362764 L544.9910063713253,223.22303872997088 L549.5605491596183,220.63442471472598 L554.2516050029599,218.27314563579154 L559.0528727369355,216.14489002129233 L563.9527856870325,214.25478502541677 L568.9395395337725,212.60738407665366 L574.0011207503508,211.2066559081838 L579.1253355442743,210.05597499685433 L584.2998392332763,209.15811343376845 L589.5121659847371,208.51523424607493 L594.7497588469663,208.12888618604654 L600,208 L605.2502411530338,208.12888618604654 L610.487834015263,208.51523424607495 L615.7001607667237,209.15811343376845 L620.8746644557258,210.05597499685433 Z" fill="#E6394625" stroke="rgba(255,255,255,0.1)" stroke-width="0.5"/>
<path d="M600,315 L620.8746644557258,210.05597499685433 L625.9988792496492,211.2066559081838 L631.0604604662275,212.60738407665366 L636.0472143129675,214.25478502541677 L640.9471272630647,216.14489002129233 L645.7483949970402,218.2731456357916 L650.4394508403818,220.63442471472604 L655.0089936286747,223.22303872997088 L659.4460149330974,226.0327514836277 L663.7398255806904,229.056794131571 L667.88008140551,232.28788149018715 L671.856808168631,235.71822958701938 L675.6604255869606,239.33957441303943 L679.2817704129807,243.14319183136905 L682.7121185098129,247.11991859448995 L685.943205868429,251.26017441930964 L688.9672485163724,255.55398506690258 L691.7769612700291,259.9910063713253 L694.365575285274,264.5605491596183 L696.7268543642084,269.2516050029598 L698.8551099787077,274.0528727369354 L700.7452149745832,278.9527856870325 L702.3926159233464,283.9395395337725 L703.7933440918163,289.00112075035076 L704.9440250031457,294.1253355442743 L705.8418865662316,299.2998392332763 L706.4847657539251,304.51216598473707 L706.8711138139535,309.7497588469663 L707,315 L706.8711138139535,320.25024115303376 L706.4847657539251,325.487834015263 L705.8418865662316,330.70016076672374 L704.9440250031456,335.87466445572574 Z" fill="#F4A26125" stroke="rgba(255,255,255,0.1)" stroke-width="0.5"/>
<path d="M600,315 L704.9440250031456,335.87466445572574 L703.7933440918162,340.99887924964924 L702.3926159233463,346.0604604662275 L700.7452149745832,351.0472143129676 L698.8551099787077,355.9471272630646 L696.7268543642084,360.74839499704024 L694.365575285274,365.43945084038177 L691.7769612700291,370.0089936286747 L688.9672485163724,374.44601493309744 L685.943205868429,378.7398255806904 L682.7121185098129,382.8800814055101 L679.2817704129806,386.856808168631 L675.6604255869606,390.6604255869606 L671.856808168631,394.2817704129806 L667.88008140551,397.71211850981285 L663.7398255806903,400.943205868429 L659.4460149330974,403.96724851637236 L655.0089936286747,406.7769612700291 L650.4394508403817,409.365575285274 L645.7483949970401,411.7268543642084 L640.9471272630645,413.8551099787077 L636.0472143129675,415.74521497458323 L631.0604604662275,417.39261592334634 L625.9988792496492,418.7933440918162 L620.8746644557257,419.94402500314567 L615.7001607667237,420.84188656623155 L610.4878340152629,421.4847657539251 L605.2502411530337,421.87111381395346 L600,422 L594.7497588469663,421.87111381395346 L589.5121659847371,421.4847657539251 L584.2998392332763,420.84188656623155 L579.1253355442742,419.94402500314567 Z" fill="#2A9D8F25" stroke="rgba(255,255,255,0.1)" stroke-width="0.5"/>
<path d="M600,315 L579.1253355442742,419.94402500314567 L574.0011207503508,418.7933440918162 L568.9395395337725,417.39261592334634 L563.9527856870325,415.74521497458323 L559.0528727369353,413.8551099787077 L554.2516050029598,411.7268543642084 L549.5605491596183,409.36557528527396 L544.9910063713253,406.7769612700291 L540.5539850669026,403.9672485163723 L536.2601744193096,400.943205868429 L532.11991859449,397.71211850981285 L528.143191831369,394.2817704129806 L524.3395744130394,390.66042558696057 L520.7182295870193,386.85680816863095 L517.2878814901871,382.88008140551005 L514.056794131571,378.73982558069036 L511.03275148362764,374.44601493309744 L508.2230387299709,370.0089936286747 L505.634424714726,365.4394508403817 L503.2731456357916,360.7483949970402 L501.1448900212923,355.94712726306454 L499.25478502541677,351.0472143129675 L497.60738407665366,346.0604604662275 L496.2066559081838,340.99887924964924 L495.05597499685433,335.87466445572574 L494.15811343376845,330.7001607667237 L493.5152342460749,325.48783401526293 L493.12888618604654,320.2502411530337 L493,315 L493.12888618604654,309.74975884696624 L493.5152342460749,304.512165984737 L494.15811343376845,299.29983923327626 L495.05597499685433,294.12533554427426 Z" fill="#457B9D25" stroke="rgba(255,255,255,0.1)" stroke-width="0.5"/>
<text x="570.3" y="270.5" text-anchor="middle" dominant-baseline="central" font-family="Inter,system-ui,sans-serif" font-weight="700" font-size="26" fill="#E63946" filter="url(#soft-glow)">D</text>
<text x="644.5" y="285.3" text-anchor="middle" dominant-baseline="central" font-family="Inter,system-ui,sans-serif" font-weight="700" font-size="26" fill="#F4A261" filter="url(#soft-glow)">I</text>
<text x="629.7" y="359.5" text-anchor="middle" dominant-baseline="central" font-family="Inter,system-ui,sans-serif" font-weight="700" font-size="26" fill="#2A9D8F" filter="url(#soft-glow)">S</text>
<text x="555.5" y="344.7" text-anchor="middle" dominant-baseline="central" font-family="Inter,system-ui,sans-serif" font-weight="700" font-size="26" fill="#457B9D" filter="url(#soft-glow)">C</text>

<!-- Title -->
<text x="600" y="42" text-anchor="middle" font-family="Inter,system-ui,sans-serif" font-weight="800" font-size="32" fill="#ffffff">Libre DISC</text>
<text x="600" y="68" text-anchor="middle" font-family="Inter,system-ui,sans-serif" font-weight="400" font-size="14" fill="rgba(255,255,255,0.5)">Free &amp; Open-Source Personality Assessment</text>

<!-- Tagline at bottom -->
<text x="600" y="608" text-anchor="middle" font-family="Inter,system-ui,sans-serif" font-weight="400" font-size="12" fill="rgba(255,255,255,0.35)">16 personality types  No tracking  No account required</text>
</svg>