<svg xmlns="http://www.w3.org/2000/svg" viewBox="0 0 1200 630" width="1200" height="630">
<defs>
  <radialGradient id="bg" cx="30%" cy="50%" r="80%">
    <stop offset="0%" stop-color="#1e2030"/>
    <stop offset="100%" stop-color="#0f1018"/>
  </radialGradient>
  <filter id="glow"><feGaussianBlur stdDeviation="3" result="b"/><feMerge><feMergeNode in="b"/><feMergeNode in="SourceGraphic"/></feMerge></filter>
</defs>
<rect width="1200" height="630" fill="url(#bg)"/>
<path d="M97.36544032709409,152.36544032709406 A230,230 0 0,1 171.98281055602936,102.50770752240405 L221.73165676349103,222.6120467488713 A100,100 0 0,0 189.28932188134524,244.28932188134524 Z" fill="#E6394688" stroke="rgba(255,255,255,0.2)" stroke-width="0.5"/>
<text x="163.9" y="171.2" text-anchor="middle" dominant-baseline="central" transform="rotate(-33.7,163.9,171.2)" font-family="Inter,system-ui,sans-serif" font-weight="700" font-size="13" fill="rgba(255,255,255,0.85)">D</text>
<path d="M171.98281055602936,102.50770752240405 A230,230 0 0,1 260,85 L260,215 A100,100 0 0,0 221.73165676349103,222.6120467488713 Z" fill="#ea594e88" stroke="rgba(255,255,255,0.2)" stroke-width="0.5"/>
<text x="226.2" y="145.3" text-anchor="middle" dominant-baseline="central" transform="rotate(-11.2,226.2,145.3)" font-family="Inter,system-ui,sans-serif" font-weight="700" font-size="13" fill="rgba(255,255,255,0.85)">Di</text>
<path d="M260,85 A230,230 0 0,1 348.01718944397066,102.50770752240405 L298.268343236509,222.6120467488713 A100,100 0 0,0 260,215 Z" fill="#ed6e5488" stroke="rgba(255,255,255,0.2)" stroke-width="0.5"/>
<text x="293.8" y="145.3" text-anchor="middle" dominant-baseline="central" transform="rotate(11.3,293.8,145.3)" font-family="Inter,system-ui,sans-serif" font-weight="700" font-size="13" fill="rgba(255,255,255,0.85)">DI</text>
<path d="M348.01718944397066,102.50770752240405 A230,230 0 0,1 422.63455967290594,152.3654403270941 L330.71067811865476,244.28932188134524 A100,100 0 0,0 298.268343236509,222.6120467488713 Z" fill="#f0835988" stroke="rgba(255,255,255,0.2)" stroke-width="0.5"/>
<text x="356.1" y="171.2" text-anchor="middle" dominant-baseline="central" transform="rotate(33.8,356.1,171.2)" font-family="Inter,system-ui,sans-serif" font-weight="700" font-size="13" fill="rgba(255,255,255,0.85)">Id</text>
<path d="M422.63455967290594,152.3654403270941 A230,230 0 0,1 472.4922924775959,226.98281055602934 L352.3879532511287,276.731656763491 A100,100 0 0,0 330.71067811865476,244.28932188134524 Z" fill="#F4A26188" stroke="rgba(255,255,255,0.2)" stroke-width="0.5"/>
<text x="403.8" y="218.9" text-anchor="middle" dominant-baseline="central" transform="rotate(56.3,403.8,218.9)" font-family="Inter,system-ui,sans-serif" font-weight="700" font-size="13" fill="rgba(255,255,255,0.85)">I</text>
<path d="M472.4922924775959,226.98281055602934 A230,230 0 0,1 490,315 L360,315 A100,100 0 0,0 352.3879532511287,276.731656763491 Z" fill="#b7a16f88" stroke="rgba(255,255,255,0.2)" stroke-width="0.5"/>
<text x="429.7" y="281.2" text-anchor="middle" dominant-baseline="central" transform="rotate(78.8,429.7,281.2)" font-family="Inter,system-ui,sans-serif" font-weight="700" font-size="13" fill="rgba(255,255,255,0.85)">Is</text>
<path d="M490,315 A230,230 0 0,1 472.4922924775959,403.01718944397066 L352.3879532511287,353.268343236509 A100,100 0 0,0 360,315 Z" fill="#8fa07888" stroke="rgba(255,255,255,0.2)" stroke-width="0.5"/>
<text x="429.7" y="348.8" text-anchor="middle" dominant-baseline="central" transform="rotate(101.3,429.7,348.8)" font-family="Inter,system-ui,sans-serif" font-weight="700" font-size="13" fill="rgba(255,255,255,0.85)">IS</text>
<path d="M472.4922924775959,403.01718944397066 A230,230 0 0,1 422.63455967290594,477.6345596729059 L330.71067811865476,385.71067811865476 A100,100 0 0,0 352.3879532511287,353.268343236509 Z" fill="#679f8188" stroke="rgba(255,255,255,0.2)" stroke-width="0.5"/>
<text x="403.8" y="411.1" text-anchor="middle" dominant-baseline="central" transform="rotate(123.8,403.8,411.1)" font-family="Inter,system-ui,sans-serif" font-weight="700" font-size="13" fill="rgba(255,255,255,0.85)">Si</text>
<path d="M422.63455967290594,477.6345596729059 A230,230 0 0,1 348.01718944397066,527.4922924775959 L298.268343236509,407.3879532511287 A100,100 0 0,0 330.71067811865476,385.71067811865476 Z" fill="#2A9D8F88" stroke="rgba(255,255,255,0.2)" stroke-width="0.5"/>
<text x="356.1" y="458.8" text-anchor="middle" dominant-baseline="central" transform="rotate(146.3,356.1,458.8)" font-family="Inter,system-ui,sans-serif" font-weight="700" font-size="13" fill="rgba(255,255,255,0.85)">S</text>
<path d="M348.01718944397066,527.4922924775959 A230,230 0 0,1 260,545 L260,415 A100,100 0 0,0 298.268343236509,407.3879532511287 Z" fill="#32939388" stroke="rgba(255,255,255,0.2)" stroke-width="0.5"/>
<text x="293.8" y="484.7" text-anchor="middle" dominant-baseline="central" transform="rotate(168.8,293.8,484.7)" font-family="Inter,system-ui,sans-serif" font-weight="700" font-size="13" fill="rgba(255,255,255,0.85)">Sc</text>
<path d="M260,545 A230,230 0 0,1 171.98281055602936,527.4922924775959 L221.73165676349103,407.3879532511287 A100,100 0 0,0 260,415 Z" fill="#388c9688" stroke="rgba(255,255,255,0.2)" stroke-width="0.5"/>
<text x="226.2" y="484.7" text-anchor="middle" dominant-baseline="central" transform="rotate(191.3,226.2,484.7)" font-family="Inter,system-ui,sans-serif" font-weight="700" font-size="13" fill="rgba(255,255,255,0.85)">SC</text>
<path d="M171.98281055602945,527.492292477596 A230,230 0 0,1 97.36544032709415,477.634559672906 L189.2893218813453,385.71067811865476 A100,100 0 0,0 221.73165676349106,407.3879532511287 Z" fill="#3d859988" stroke="rgba(255,255,255,0.2)" stroke-width="0.5"/>
<text x="163.9" y="458.8" text-anchor="middle" dominant-baseline="central" transform="rotate(213.8,163.9,458.8)" font-family="Inter,system-ui,sans-serif" font-weight="700" font-size="13" fill="rgba(255,255,255,0.85)">Cs</text>
<path d="M97.36544032709409,477.63455967290594 A230,230 0 0,1 47.50770752240405,403.01718944397066 L167.6120467488713,353.268343236509 A100,100 0 0,0 189.28932188134524,385.71067811865476 Z" fill="#457B9D88" stroke="rgba(255,255,255,0.2)" stroke-width="0.5"/>
<text x="116.2" y="411.1" text-anchor="middle" dominant-baseline="central" transform="rotate(236.3,116.2,411.1)" font-family="Inter,system-ui,sans-serif" font-weight="700" font-size="13" fill="rgba(255,255,255,0.85)">C</text>
<path d="M47.50770752240402,403.01718944397055 A230,230 0 0,1 30,314.99999999999994 L160,314.99999999999994 A100,100 0 0,0 167.6120467488713,353.26834323650894 Z" fill="#75678388" stroke="rgba(255,255,255,0.2)" stroke-width="0.5"/>
<text x="90.3" y="348.8" text-anchor="middle" dominant-baseline="central" transform="rotate(258.8,90.3,348.8)" font-family="Inter,system-ui,sans-serif" font-weight="700" font-size="13" fill="rgba(255,255,255,0.85)">Cd</text>
<path d="M30,315 A230,230 0 0,1 47.50770752240402,226.9828105560294 L167.6120467488713,276.73165676349106 A100,100 0 0,0 160,315 Z" fill="#965a7288" stroke="rgba(255,255,255,0.2)" stroke-width="0.5"/>
<text x="90.3" y="281.2" text-anchor="middle" dominant-baseline="central" transform="rotate(281.3,90.3,281.2)" font-family="Inter,system-ui,sans-serif" font-weight="700" font-size="13" fill="rgba(255,255,255,0.85)">CD</text>
<path d="M47.50770752240399,226.98281055602948 A230,230 0 0,1 97.36544032709398,152.36544032709415 L189.28932188134522,244.2893218813453 A100,100 0 0,0 167.6120467488713,276.73165676349106 Z" fill="#b64d6088" stroke="rgba(255,255,255,0.2)" stroke-width="0.5"/>
<text x="116.2" y="218.9" text-anchor="middle" dominant-baseline="central" transform="rotate(303.8,116.2,218.9)" font-family="Inter,system-ui,sans-serif" font-weight="700" font-size="13" fill="rgba(255,255,255,0.85)">Dc</text>
<path d="M260,315 L163.8830425204834,295.8811484424194 A98,98 0 0,1 279.11885155758057,218.8830425204834 Z" fill="#E6394625" stroke="rgba(255,255,255,0.1)" stroke-width="0.5"/>
<text x="232.8" y="274.3" text-anchor="middle" dominant-baseline="central" font-family="Inter,system-ui,sans-serif" font-weight="700" font-size="26" fill="#E63946" filter="url(#glow)">D</text>
<path d="M260,315 L279.11885155758057,218.8830425204834 A98,98 0 0,1 356.1169574795166,334.11885155758057 Z" fill="#F4A26125" stroke="rgba(255,255,255,0.1)" stroke-width="0.5"/>
<text x="300.7" y="287.8" text-anchor="middle" dominant-baseline="central" font-family="Inter,system-ui,sans-serif" font-weight="700" font-size="26" fill="#F4A261" filter="url(#glow)">I</text>
<path d="M260,315 L356.1169574795166,334.11885155758057 A98,98 0 0,1 240.88114844241943,411.1169574795166 Z" fill="#2A9D8F25" stroke="rgba(255,255,255,0.1)" stroke-width="0.5"/>
<text x="287.2" y="355.7" text-anchor="middle" dominant-baseline="central" font-family="Inter,system-ui,sans-serif" font-weight="700" font-size="26" fill="#2A9D8F" filter="url(#glow)">S</text>
<path d="M260,315 L240.88114844241943,411.1169574795166 A98,98 0 0,1 163.8830425204834,295.88114844241943 Z" fill="#457B9D25" stroke="rgba(255,255,255,0.1)" stroke-width="0.5"/>
<text x="219.3" y="342.2" text-anchor="middle" dominant-baseline="central" font-family="Inter,system-ui,sans-serif" font-weight="700" font-size="26" fill="#457B9D" filter="url(#glow)">C</text>

<text x="840" y="270" text-anchor="middle" font-family="Inter,system-ui,sans-serif" font-weight="800" font-size="64" fill="#ffffff">Libre DISC</text>
<text x="840" y="340" text-anchor="middle" font-family="Inter,system-ui,sans-serif" font-weight="400" font-size="36" fill="rgba(255,255,255,0.5)">Free Personality Test</text>
</svg>